<svg fill="red" id="Calque_1" data-name="Calque 1" xmlns="http://www.w3.org/2000/svg" viewBox="0 0 23.41 27.95">
    <defs>
        <style>
            .cls-1 {
                fill:  #7F8184;
            }
        </style>
    </defs>
    <title>Ma_place_grise</title>
    <g id="noun_Chair_48527" data-name="noun Chair 48527">
        <g id="Groupe_20" data-name="Groupe 20">
            <path id="Tracé_5" data-name="Tracé 5" class="cls-1"
                d="M169.08,185.89a.6.6,0,0,0-.6-.6h-2.71a.61.61,0,1,0,0,1.21h.74v1.39a1.64,1.64,0,0,1-1.39,1.62v-.06a1.43,1.43,0,0,0-1.39-1.45h-5.26v-2.3H162a1.25,1.25,0,0,0,1.3-1.19,2.09,2.09,0,0,0,0-.25l-1.13-10.13a1.62,1.62,0,0,0-1.61-1.44h-6.34a1.62,1.62,0,0,0-1.61,1.44l-1.13,10.13a1.26,1.26,0,0,0,1,1.43h3.78V188h-5.2a1.43,1.43,0,0,0-1.45,1.39v.12a1.64,1.64,0,0,1-1.39-1.62v-1.4H149a.61.61,0,1,0,0-1.21h-2.71a.61.61,0,0,0,0,1.21H147v1.39a2.85,2.85,0,0,0,2.61,2.85,1.38,1.38,0,0,0,1.43,1.32h5.21v4.37a12.55,12.55,0,0,0-6,2l-.23,0a1.12,1.12,0,1,0,1.08,1.15v0a1.12,1.12,0,0,0-.09-.44,11.79,11.79,0,0,1,5.85-1.73v1.18a1.12,1.12,0,0,0-.6,1,1.09,1.09,0,1,0,2.18.06v-.06a1.12,1.12,0,0,0-.6-1v-1.19a12,12,0,0,1,5.88,1.68,1.11,1.11,0,0,0-.12.5,1.1,1.1,0,0,0,1.12,1.06,1.09,1.09,0,0,0,0-2.18h-.13a12.69,12.69,0,0,0-6.12-2v-4.35h5.2a1.44,1.44,0,0,0,1.45-1.33,2.87,2.87,0,0,0,2.61-2.84v-1.4h.75a.6.6,0,0,0,.61-.59h0"
                transform="translate(-145.68 -172.69)" />
        </g>
    </g>
</svg>