<svg id="Calque_1" data-name="Calque 1" xmlns="http://www.w3.org/2000/svg" viewBox="0 0 23.41 27.95"><defs><style>.cls-1{fill:#3663a1;}</style></defs><title>Ma_place_bleue</title><g id="noun_Chair_48527" data-name="noun Chair 48527"><g id="Groupe_20" data-name="Groupe 20"><path id="Tracé_5" data-name="Tracé 5" class="cls-1" d="M146.38,236.18a.6.6,0,0,0-.6-.6h-2.72a.61.61,0,0,0-.6.61.6.6,0,0,0,.6.6h.74v1.39a1.65,1.65,0,0,1-1.39,1.63v-.07a1.42,1.42,0,0,0-1.39-1.45h-5.26V236h3.53a1.24,1.24,0,0,0,1.3-1.19,1.07,1.07,0,0,0,0-.25l-1.13-10.12a1.62,1.62,0,0,0-1.61-1.45h-6.33a1.62,1.62,0,0,0-1.61,1.45l-1.13,10.12a1.25,1.25,0,0,0,1,1.43,1,1,0,0,0,.25,0h3.53v2.3h-5.2a1.42,1.42,0,0,0-1.45,1.39v.12a1.65,1.65,0,0,1-1.4-1.62v-1.4h.75a.6.6,0,0,0,0-1.2h-2.71a.6.6,0,1,0,0,1.2h.75v1.4a2.86,2.86,0,0,0,2.61,2.84,1.39,1.39,0,0,0,1.43,1.33h5.22v4.36a12.47,12.47,0,0,0-6,2l-.24,0a1.12,1.12,0,1,0,1.09,1.14v0a1.12,1.12,0,0,0-.09-.44,11.73,11.73,0,0,1,5.85-1.73v1.18a1.12,1.12,0,0,0-.6,1,1.09,1.09,0,1,0,2.17.06.06.06,0,0,0,0-.06,1.09,1.09,0,0,0-.6-1v-1.19a12,12,0,0,1,5.89,1.68,1.28,1.28,0,0,0-.13.5,1.09,1.09,0,1,0,1.09-1.12l-.13,0a12.45,12.45,0,0,0-6.11-2v-4.36H141a1.42,1.42,0,0,0,1.44-1.33,2.85,2.85,0,0,0,2.61-2.84v-1.4h.76a.59.59,0,0,0,.6-.59h0" transform="translate(-122.97 -222.98)"/></g></g></svg>