<svg id="Calque_1" data-name="Calque 1" xmlns="http://www.w3.org/2000/svg" viewBox="0 0 49.89 27.56"><defs>
<style>.cls-1{fill:none;stroke:#1B3F7B;stroke-miterlimit:10;}.cls-2{fill:#1B3F7B;}</style>
</defs><title>Utilisateurs_bleue</title><g id="Groupe_23" data-name="Groupe 23"><path id="Tracé_9" data-name="Tracé 9" class="cls-1" d="M128.8,255.75s0,0,0,0c-.56-1.17-3.75-2.18-3.75-2.18a3.53,3.53,0,0,1-1.73-1.21s-.16-.65-.18-.86a.23.23,0,0,1,0-.14l.9-1.62a3.33,3.33,0,0,0,.54-1.25,1.51,1.51,0,0,0,.08-1.16.14.14,0,0,1,0-.09,4.4,4.4,0,0,0-.21-3.25,0,0,0,0,1,0,0,3,3,0,0,0-1.84-1.9h0a5.45,5.45,0,0,0-3.58-.35c-2.58.43-3.16,3.43-3.17,3.51h0a4.9,4.9,0,0,0,.22,2.28.08.08,0,0,1,0,.07,3.29,3.29,0,0,0,.12,1.17,1,1,0,0,0,.39.71.09.09,0,0,1,0,.06,10.81,10.81,0,0,0,.86,1.78.11.11,0,0,1,0,.05v.44a3.25,3.25,0,0,1-.17.63,0,0,0,0,1,0,0c-.12.15-.23.29-.35.42v0a14.09,14.09,0,0,1-3.3,1.45h0a3.31,3.31,0,0,0-1.44,1h0a10.24,10.24,0,0,0-1.68,4.45h0c0,1.13.5,1.25.5,1.25,3.47,1.55,9,1.64,9,1.64a27.9,27.9,0,0,0,9.55-1.4h0c.58-.37.6-.66.6-.66C130.52,257.22,129,255.9,128.8,255.75Z" transform="translate(-109.99 -241.02)"/><path id="Tracé_10" data-name="Tracé 10" class="cls-1" d="M158,255.75l0,0c-.56-1.17-3.75-2.18-3.75-2.18a3.61,3.61,0,0,1-1.74-1.21s-.15-.65-.18-.86a.35.35,0,0,1,0-.14l.89-1.62a3.19,3.19,0,0,0,.55-1.25,1.51,1.51,0,0,0,.08-1.16.14.14,0,0,1,0-.09,4.4,4.4,0,0,0-.21-3.25,0,0,0,0,1,0,0,3,3,0,0,0-1.84-1.9h0a5.42,5.42,0,0,0-3.57-.35c-2.58.43-3.16,3.43-3.17,3.51h0a4.9,4.9,0,0,0,.22,2.28.08.08,0,0,1,0,.07,2.89,2.89,0,0,0,.12,1.17.94.94,0,0,0,.39.71.09.09,0,0,1,0,.06,10.81,10.81,0,0,0,.86,1.78.11.11,0,0,1,0,.05v.44a3.23,3.23,0,0,1-.16.63l0,0c-.11.15-.23.29-.34.42l0,0a14.09,14.09,0,0,1-3.3,1.45h0a3.26,3.26,0,0,0-1.44,1h0a10.38,10.38,0,0,0-1.69,4.45h0c0,1.13.51,1.25.51,1.25,3.47,1.55,9,1.64,9,1.64a27.9,27.9,0,0,0,9.55-1.4h0c.58-.37.6-.66.6-.66C159.69,257.22,158.16,255.9,158,255.75Z" transform="translate(-109.99 -241.02)"/><path id="Tracé_11" data-name="Tracé 11" class="cls-2" d="M145.75,259.72c-.68-1.5-4.82-2.81-4.82-2.81-1.55-.54-2-1.08-2.16-1.36l0-.09h0l0-.09h0a7.32,7.32,0,0,1-.21-.9l0,.12a3.08,3.08,0,0,1,0-.43l0,0a8.1,8.1,0,0,0,1.21-2.17,4.14,4.14,0,0,0,.71-1.62c.31-.87.22-1.32.08-1.55a5.72,5.72,0,0,0-.27-4.24,3.74,3.74,0,0,0-2.37-2.45c-1.84-1.13-4.59-.45-4.59-.45-3.35.57-4.07,4.5-4.07,4.5a6.25,6.25,0,0,0,.3,3,3.82,3.82,0,0,0,.14,1.54,1.17,1.17,0,0,0,.54.93,7.86,7.86,0,0,0,1.14,2.39v0a2.51,2.51,0,0,1,0,.67v-.07a4.4,4.4,0,0,1-.22.81v0a6.93,6.93,0,0,1-.47.56,17.69,17.69,0,0,1-4.24,1.88,4.3,4.3,0,0,0-1.86,1.25,13.24,13.24,0,0,0-2.15,5.72c0,1.45.65,1.6.65,1.6,4.44,2,11.5,2.1,11.5,2.1a35.19,35.19,0,0,0,12.25-1.8c.75-.47.77-.85.77-.85C148,261.35,145.75,259.72,145.75,259.72Z" transform="translate(-109.99 -241.02)"/></g></svg>